<?xml version="1.0" encoding="UTF-8"?>
<svg xmlns="http://www.w3.org/2000/svg" xmlns:xlink="http://www.w3.org/1999/xlink" width="24pt" height="24pt" viewBox="0 0 24 24" version="1.1">
<g id="surface1">
<path style=" stroke:none;fill-rule:nonzero;fill:rgb(0%,0%,0%);fill-opacity:1;" d="M 20.984375 9.015625 C 20.375 5.195312 17.066406 2.273438 13.074219 2.273438 C 9.464844 2.273438 6.414062 4.664062 5.414062 7.949219 C 2.3125 8.65625 0 11.429688 0 14.742188 C 0 18.589844 3.117188 21.707031 6.964844 21.707031 L 17.015625 21.707031 C 20.863281 21.707031 23.984375 18.589844 23.984375 14.742188 C 23.984375 12.367188 22.796875 10.273438 20.984375 9.015625 Z M 9.636719 11.414062 L 9.40625 12.3125 C 9.390625 12.371094 9.351562 12.417969 9.296875 12.445312 C 9.246094 12.472656 9.179688 12.472656 9.125 12.449219 C 8.859375 12.339844 8.566406 12.28125 8.257812 12.28125 C 7.390625 12.28125 6.871094 12.820312 6.871094 13.726562 C 6.871094 14.632812 7.378906 15.152344 8.265625 15.152344 C 8.605469 15.152344 8.949219 15.074219 9.128906 15.003906 C 9.1875 14.980469 9.25 14.984375 9.304688 15.011719 C 9.359375 15.042969 9.398438 15.09375 9.410156 15.15625 L 9.582031 16.039062 C 9.597656 16.128906 9.554688 16.222656 9.46875 16.261719 C 9.25 16.371094 8.757812 16.5 8.09375 16.5 C 6.378906 16.5 5.269531 15.4375 5.269531 13.792969 C 5.269531 12.082031 6.449219 10.933594 8.207031 10.933594 C 8.832031 10.933594 9.300781 11.058594 9.53125 11.179688 C 9.617188 11.222656 9.660156 11.320312 9.636719 11.414062 Z M 12.515625 16.507812 C 11.007812 16.507812 9.957031 15.375 9.957031 13.757812 C 9.957031 12.09375 11.042969 10.933594 12.59375 10.933594 C 14.136719 10.933594 15.175781 12.03125 15.175781 13.667969 C 15.175781 15.394531 14.128906 16.507812 12.515625 16.507812 Z M 18.714844 17.605469 C 18.714844 17.71875 18.621094 17.8125 18.503906 17.8125 L 15.972656 17.8125 C 15.859375 17.8125 15.765625 17.71875 15.765625 17.605469 L 15.765625 17.097656 C 15.765625 17.039062 15.792969 16.984375 15.835938 16.945312 L 16.296875 16.527344 C 17.035156 15.867188 17.386719 15.492188 17.398438 15.160156 C 17.398438 14.953125 17.273438 14.851562 17.015625 14.851562 C 16.816406 14.851562 16.601562 14.9375 16.378906 15.105469 C 16.328125 15.144531 16.261719 15.15625 16.199219 15.140625 C 16.136719 15.125 16.085938 15.078125 16.0625 15.015625 L 15.824219 14.417969 C 15.789062 14.332031 15.816406 14.234375 15.894531 14.175781 C 16.238281 13.917969 16.710938 13.765625 17.1875 13.765625 C 18.074219 13.765625 18.648438 14.289062 18.648438 15.09375 C 18.648438 15.746094 18.207031 16.257812 17.710938 16.710938 L 18.503906 16.710938 C 18.621094 16.710938 18.714844 16.800781 18.714844 16.917969 Z M 18.714844 17.605469 "/>
<path style=" stroke:none;fill-rule:nonzero;fill:rgb(0%,0%,0%);fill-opacity:1;" d="M 12.566406 12.246094 C 11.828125 12.246094 11.566406 13.046875 11.566406 13.734375 C 11.566406 14.621094 11.960938 15.195312 12.574219 15.195312 C 13.304688 15.195312 13.566406 14.390625 13.566406 13.703125 C 13.566406 12.976562 13.257812 12.246094 12.566406 12.246094 Z M 12.566406 12.246094 "/>
</g>
</svg>
